<svg xmlns="http://www.w3.org/2000/svg" viewBox="0 0 64 64"><defs><style>.cls-1{fill:#f9f1e8;}.cls-2{fill:#45a4b3;}</style></defs><title>Recurso 1</title><g id="Capa_2" data-name="Capa 2"><g id="Capa_1-2" data-name="Capa 1"><circle class="cls-1" cx="32" cy="32" r="32"/><path class="cls-2" d="M53.44,22.68c-.21.95-.43,1.9-.62,2.85-.89,4.43-1.75,8.87-2.66,13.3a5.58,5.58,0,0,1-5.5,4.57c-7.06,0-14.12,0-21.18,0a5.4,5.4,0,0,1-5.2-4.51c-.54-3.41-1-6.84-1.52-10.26q-.68-4.63-1.37-9.27c-.09-.57-.16-1.15-.25-1.73S14.9,17,14.37,17c-1.28,0-2.57,0-3.86,0a2,2,0,0,1-2-1.8,2,2,0,0,1,1.6-2.2,3.08,3.08,0,0,1,.53,0h3.86a4.53,4.53,0,0,1,4.62,4c.14,1,.3,1.93.43,2.9,0,.24.13.34.37.32H51a4.14,4.14,0,0,1,1.51.33,2,2,0,0,1,.95,1.26Z"/><path class="cls-2" d="M42.54,55.76a5.26,5.26,0,1,1,.05-10.51,5.37,5.37,0,0,1,5.23,5.3A5.25,5.25,0,0,1,42.54,55.76Z"/><path class="cls-2" d="M24.33,55.7a5.1,5.1,0,0,1-4.82-5.82,5.12,5.12,0,1,1,4.82,5.82Z"/></g></g></svg>