<svg xmlns="http://www.w3.org/2000/svg" viewBox="0 0 64 64"><defs><style>.cls-1{fill:#f9f1e8;}.cls-2{fill:#45a4b3;}</style></defs><title>Recurso 3</title><g id="Capa_2" data-name="Capa 2"><g id="Capa_1-2" data-name="Capa 1"><circle class="cls-1" cx="32" cy="32" r="32"/><path class="cls-2" d="M32,28.17A11.81,11.81,0,0,1,20.08,16.5a11.89,11.89,0,0,1,12-11.71A12,12,0,0,1,43.92,16.58,11.8,11.8,0,0,1,32,28.17Z"/><path class="cls-2" d="M51.5,54.46c0-13.25-8.73-24-19.5-24s-19.5,10.75-19.5,24v2.91s10.15,7.2,18,6.59a40.6,40.6,0,0,0,6.57-.36c2.36-.47,9.8-1.88,14.42-6.23"/></g></g></svg>